<svg xmlns="http://www.w3.org/2000/svg" width="1200" height="800" viewBox="0 0 1200 800">
  <defs>
    <linearGradient id="bg" x1="0" y1="0" x2="1" y2="1">
      <stop offset="0" stop-color="#0b1220"/>
      <stop offset="1" stop-color="#0f172a"/>
    </linearGradient>
    <linearGradient id="glass" x1="0" y1="0" x2="0" y2="1">
      <stop offset="0" stop-color="rgba(255,255,255,0.14)"/>
      <stop offset="1" stop-color="rgba(255,255,255,0.04)"/>
    </linearGradient>
    <filter id="noise" x="-20%" y="-20%" width="140%" height="140%">
      <feTurbulence type="fractalNoise" baseFrequency="0.9" numOctaves="2" stitchTiles="stitch" />
      <feColorMatrix type="matrix" values="1 0 0 0 0  0 1 0 0 0  0 0 1 0 0  0 0 0 .06 0"/>
    </filter>
    <filter id="shadow" x="-20%" y="-20%" width="140%" height="140%">
      <feDropShadow dx="0" dy="18" stdDeviation="18" flood-color="rgba(0,0,0,0.35)"/>
    </filter>
  </defs>

  <rect width="1200" height="800" fill="url(#bg)"/>
  <circle cx="260" cy="170" r="210" fill="rgba(34,197,94,0.15)"/>
  <circle cx="1030" cy="190" r="250" fill="rgba(59,130,246,0.12)"/>

  <g filter="url(#shadow)">
    <rect x="90" y="140" width="1020" height="520" rx="30" fill="rgba(255,255,255,0.06)" stroke="rgba(255,255,255,0.10)"/>
    <rect x="140" y="220" width="920" height="140" rx="26" fill="url(#glass)" stroke="rgba(255,255,255,0.10)"/>
    <rect x="140" y="390" width="520" height="270" rx="26" fill="rgba(255,255,255,0.05)" stroke="rgba(255,255,255,0.10)"/>
    <rect x="690" y="390" width="370" height="270" rx="26" fill="rgba(34,197,94,0.10)" stroke="rgba(255,255,255,0.10)"/>
    <g transform="translate(980 250)"><rect x="-36" y="-34" width="72" height="72" rx="18" fill="rgba(229,231,235,0.08)" stroke="rgba(255,255,255,0.10)"/><path d="M-6 -14a12 12 0 0 0 16 16l-30 30-10-10 30-30a12 12 0 0 0 -6 -6z" fill="rgba(229,231,235,0.68)"/></g>
  </g>

  <rect width="1200" height="800" filter="url(#noise)"/>

  <text x="140" y="210" fill="rgba(229,231,235,0.95)" font-size="54" font-family="system-ui" font-weight="800">Hausmeister</text>
  <text x="140" y="260" fill="rgba(148,163,184,0.92)" font-size="22" font-family="system-ui">Fundkiste • Werkzeug • Rettungsmission</text>
</svg>