<svg xmlns="http://www.w3.org/2000/svg" width="1400" height="900" viewBox="0 0 1400 900">
  <defs>
    <linearGradient id="bg" x1="0" y1="0" x2="1" y2="1">
      <stop offset="0" stop-color="#0f172a"/>
      <stop offset="1" stop-color="#1e293b"/>
    </linearGradient>
    <linearGradient id="glass" x1="0" y1="0" x2="0" y2="1">
      <stop offset="0" stop-color="#93c5fd" stop-opacity=".28"/>
      <stop offset="1" stop-color="#38bdf8" stop-opacity=".08"/>
    </linearGradient>
  </defs>
  <rect width="1400" height="900" fill="url(#bg)"/>
  <rect x="60" y="80" width="1280" height="740" rx="34" fill="#0b1220" stroke="#334155"/>
  <rect x="110" y="130" width="1180" height="260" rx="24" fill="url(#glass)" stroke="#7dd3fc" stroke-opacity=".35"/>
  <g fill="#1f2937">
    <rect x="130" y="450" width="260" height="220" rx="16"/>
    <rect x="420" y="470" width="260" height="200" rx="16"/>
    <rect x="710" y="450" width="260" height="220" rx="16"/>
    <rect x="1000" y="470" width="260" height="200" rx="16"/>
  </g>
  <path d="M120 730 C350 640,560 790,760 700 C980 610,1120 770,1270 700" fill="none" stroke="#60a5fa" stroke-width="14" stroke-opacity=".55"/>
  <text x="130" y="190" fill="#f8fafc" font-size="56" font-family="system-ui" font-weight="800">Pausenhalle</text>
  <text x="132" y="238" fill="#cbd5e1" font-size="26" font-family="system-ui">Zentraler Treffpunkt • Kapitelstart</text>
</svg>
